<svg width="45" height="32" viewBox="0 0 45 32" fill="none" xmlns="http://www.w3.org/2000/svg">
<path fill-rule="evenodd" clip-rule="evenodd" d="M40.8716 0C42.2199 0 43.4173 0.596475 44.1708 1.51907L22.2892 18.4536L0.602673 1.82659C1.32777 0.731168 2.63557 0 4.12844 0H40.8716ZM0 28.1905V4.83156L15.5607 16.7619L0.0320771 28.6677C0.0109107 28.5113 0 28.3521 0 28.1905ZM1.42312 31.0682C2.14766 31.6487 3.09358 32 4.12844 32H40.8716C41.761 32 42.5848 31.7404 43.2588 31.2989L26.7237 18.5021L23.7502 20.8033C22.9093 21.4542 21.6842 21.4568 20.84 20.8095L17.8217 18.4954L1.42312 31.0682ZM28.9723 16.7619L44.8872 29.0788C44.9609 28.7938 45 28.4963 45 28.1905V4.35772L28.9723 16.7619Z" fill="white"/>
</svg>
